<?xml version="1.0" standalone="no"?>
<!DOCTYPE svg PUBLIC "-//W3C//DTD SVG 20010904//EN"
 "http://www.w3.org/TR/2001/REC-SVG-20010904/DTD/svg10.dtd">
<svg version="1.0" xmlns="http://www.w3.org/2000/svg"
 width="2048.000000pt" height="550.000000pt" viewBox="0 0 2048.000000 550.000000"
 preserveAspectRatio="xMidYMid meet">

<g transform="translate(0.000000,550.000000) scale(0.100000,-0.100000)"
fill="#000000" stroke="none">
<path d="M3913 4945 c-137 -30 -265 -132 -326 -262 l-32 -68 0 -735 0 -735 27
-56 c37 -74 129 -161 212 -200 81 -38 182 -48 301 -29 67 10 99 11 157 1 132
-22 199 -68 243 -168 21 -46 27 -53 53 -53 36 0 62 28 62 66 0 34 -31 98 -67
136 l-26 27 57 52 c61 55 99 117 94 151 -4 30 -51 62 -77 53 -12 -3 -28 -21
-37 -38 -23 -45 -63 -86 -108 -109 -35 -18 -44 -18 -110 -7 -39 7 -73 14 -75
15 -2 2 22 35 54 74 177 216 333 288 598 276 164 -7 196 4 197 66 0 51 -26 58
-207 58 -141 0 -170 3 -219 21 -106 40 -184 138 -184 230 0 47 -15 76 -40 79
-59 8 -80 -15 -80 -85 0 -85 33 -159 104 -232 l62 -63 -51 -24 c-77 -38 -173
-123 -270 -240 -128 -154 -159 -172 -300 -167 -58 3 -158 54 -195 100 -55 70
-60 100 -60 356 0 263 -3 252 90 294 57 26 93 26 146 1 46 -23 64 -45 83 -102
12 -38 27 -48 65 -48 39 0 59 33 54 85 -7 57 -40 107 -98 146 -93 62 -199 72
-297 29 l-43 -19 0 185 c0 212 0 211 87 274 133 95 292 67 387 -68 49 -69 59
-153 31 -264 -13 -52 62 -90 98 -50 9 10 23 46 31 81 18 76 49 113 114 136 84
28 164 15 228 -38 38 -32 73 -96 74 -134 0 -24 34 -53 62 -53 25 0 58 36 58
63 0 95 -85 214 -188 264 -50 24 -69 27 -152 28 -84 0 -102 -3 -150 -27 -30
-15 -55 -26 -55 -25 -1 1 -14 28 -29 59 -92 192 -353 266 -542 152 l-54 -33 0
107 c0 92 4 114 24 159 57 121 168 194 306 201 100 5 175 -22 246 -90 75 -71
108 -148 109 -258 0 -47 4 -91 8 -97 13 -20 72 -16 92 7 14 15 17 36 16 104 0
82 1 86 27 104 103 74 236 77 365 9 70 -36 121 -91 155 -166 35 -74 37 -208 5
-286 -23 -55 -18 -86 16 -104 31 -17 70 3 88 46 8 21 23 69 32 107 l16 68 58
-5 c121 -11 242 -105 286 -222 19 -50 22 -74 18 -145 -2 -49 -12 -103 -22
-128 -17 -41 -20 -43 -49 -37 -17 3 -145 8 -283 12 -224 5 -256 4 -278 -11
-17 -11 -25 -26 -25 -44 0 -57 -2 -56 267 -63 259 -7 327 -17 431 -67 36 -17
37 -19 34 -67 -3 -48 -16 -80 -47 -120 -14 -17 -19 -18 -58 -7 -23 7 -68 18
-101 24 -56 12 -59 11 -77 -11 -40 -49 -12 -92 72 -110 148 -32 279 -172 319
-340 53 -226 -121 -464 -340 -464 -124 0 -220 81 -220 186 0 45 -25 77 -59 77
-46 0 -64 -30 -59 -98 5 -68 34 -131 86 -184 36 -37 36 -38 20 -70 -29 -61
-96 -126 -165 -160 -56 -27 -77 -32 -137 -32 -141 0 -263 94 -291 222 -13 60
-74 63 -111 7 -18 -28 -9 -70 32 -142 13 -23 24 -44 24 -48 0 -3 -24 -17 -52
-30 -41 -19 -70 -25 -125 -25 -101 0 -170 28 -237 95 -86 85 -119 179 -106
300 7 65 -10 101 -50 110 -51 11 -67 -12 -75 -109 -16 -189 63 -351 220 -451
149 -96 333 -99 468 -8 l49 33 63 -31 c85 -42 175 -56 257 -41 132 25 255 111
318 225 l32 57 77 -6 c143 -12 263 37 371 153 71 76 108 151 127 262 30 171
-16 324 -140 475 -34 40 -39 51 -29 65 20 27 52 102 61 143 5 22 11 42 14 44
9 10 85 -35 158 -94 445 -355 538 -972 219 -1442 -50 -73 -201 -217 -272 -260
-34 -21 -61 -45 -66 -59 -5 -16 3 -90 24 -210 17 -102 34 -204 37 -226 l6 -40
-30 35 c-16 19 -87 107 -156 195 -69 88 -132 167 -140 175 -8 8 -20 24 -27 34
-12 18 -15 18 -36 3 -20 -14 -21 -17 -7 -23 9 -3 17 -11 17 -16 0 -7 -5 -6
-13 1 -8 6 -18 7 -22 3 -5 -4 -5 -1 -1 6 4 7 2 12 -6 12 -7 1 -1 8 15 16 28
15 35 38 15 50 -7 4 -8 3 -4 -4 4 -7 2 -13 -3 -13 -37 -5 -50 -16 -46 -39 2
-13 -2 -20 -11 -20 -8 0 -12 -4 -9 -10 3 -5 -4 -11 -17 -11 -17 -1 -18 -3 -5
-6 9 -2 17 -13 17 -23 0 -13 -5 -17 -15 -14 -8 4 -12 10 -9 15 3 5 -2 6 -11 3
-10 -4 -15 -2 -13 6 2 7 -3 15 -9 17 -7 3 -13 -3 -13 -12 0 -10 -5 -15 -13
-12 -15 5 -18 -59 -4 -80 5 -8 -2 -22 -20 -38 -15 -14 -23 -25 -18 -24 6 1 17
1 25 0 13 -1 13 -2 0 -11 -13 -9 -13 -10 0 -11 8 -1 19 0 25 1 5 1 7 -2 3 -6
-4 -4 -2 -14 5 -23 6 -8 -8 -1 -33 18 -117 86 -68 78 -510 89 -308 8 -410 14
-463 27 -37 9 -65 21 -62 26 4 5 -1 6 -9 3 -36 -14 -306 132 -290 158 4 7 3 8
-4 4 -15 -9 -82 53 -139 126 -91 119 -148 262 -160 403 -8 98 -52 143 -104
107 -21 -14 -21 -20 -16 -116 18 -353 282 -677 653 -802 151 -50 196 -55 584
-61 l365 -5 220 -156 c373 -264 616 -433 631 -439 24 -9 64 25 64 55 0 15 -18
126 -39 247 -22 121 -52 290 -66 375 -14 85 -28 162 -30 170 -3 9 16 30 51 55
225 161 386 417 450 712 21 97 23 309 5 413 -68 388 -306 709 -652 880 -53 26
-111 52 -128 58 l-32 11 17 33 c62 120 57 291 -14 422 -71 134 -252 245 -398
246 -41 0 -42 1 -54 46 -17 60 -77 152 -137 210 -135 129 -371 162 -542 74
l-39 -19 -25 37 c-65 98 -175 172 -294 197 -82 18 -119 18 -200 0z m1441
-3627 c-5 -7 10 -12 29 -9 5 1 5 -3 2 -9 -4 -7 0 -10 10 -8 11 2 19 -4 20 -14
3 -14 -6 -12 -41 13 -49 33 -51 36 -29 36 8 0 12 -4 9 -9z"/>
<path d="M3210 4883 c-256 -27 -639 -169 -867 -319 -161 -107 -384 -312 -499
-459 -223 -285 -376 -643 -425 -995 -20 -138 -17 -467 5 -608 72 -474 284
-897 615 -1230 604 -606 1511 -826 2311 -561 274 90 630 295 630 362 0 9 -8
25 -18 35 -17 17 -44 19 -268 25 -341 9 -493 35 -670 117 -281 130 -507 370
-602 642 -70 198 -65 87 -71 1601 -6 1340 -6 1369 -25 1383 -19 14 -42 15
-116 7z m20 -1426 c0 -1430 -2 -1381 60 -1580 16 -50 26 -95 23 -100 -3 -6 -2
-7 4 -4 5 3 19 -14 31 -38 26 -54 20 -60 -7 -7 -53 99 11 -93 69 -208 124
-246 318 -443 554 -562 88 -44 232 -98 301 -113 l60 -12 -80 -25 c-102 -33
-271 -65 -404 -78 -380 -37 -773 36 -1126 210 -169 82 -286 156 -409 254 -112
91 -303 286 -377 386 -212 286 -348 628 -395 993 -13 103 -15 176 -11 327 7
226 30 360 97 554 54 156 85 224 165 355 247 412 617 715 1055 865 120 42 297
84 353 85 l37 1 0 -1303z m189 -1849 c18 -28 26 -47 19 -40 -14 11 -62 92 -55
92 2 0 19 -23 36 -52z m62 -85 c13 -16 12 -17 -3 -4 -10 7 -18 15 -18 17 0 8
8 3 21 -13z"/>
<path d="M10503 3800 c-259 -68 -423 -287 -423 -567 0 -120 13 -180 62 -283
71 -147 200 -252 365 -294 78 -20 240 -21 318 -1 191 49 343 195 411 395 14
42 19 84 19 175 -1 105 -4 130 -28 200 -88 251 -294 396 -562 394 -55 0 -118
-7 -162 -19z m253 -141 c85 -16 152 -51 212 -111 96 -96 139 -219 129 -359 -7
-90 -26 -142 -79 -222 -143 -212 -468 -241 -653 -59 -235 231 -122 670 191
746 73 18 124 19 200 5z"/>
<path d="M13452 3800 c-105 -28 -187 -75 -262 -150 -111 -111 -170 -259 -170
-425 0 -240 124 -441 331 -534 90 -40 157 -54 263 -53 167 1 294 52 411 163
318 303 198 858 -214 990 -97 31 -262 35 -359 9z m306 -156 c114 -34 225 -150
263 -276 27 -89 23 -225 -9 -308 -46 -117 -145 -209 -269 -251 -97 -32 -223
-25 -315 18 -88 41 -148 98 -192 182 -67 128 -71 287 -11 418 32 70 128 166
197 198 98 45 227 52 336 19z"/>
<path d="M7454 3779 c3 -17 6 -96 6 -175 l0 -144 85 0 85 0 0 95 0 95 163 0
c90 0 246 3 345 7 l182 6 0 74 0 73 -436 0 -436 0 6 -31z"/>
<path d="M8586 3794 c-14 -14 -16 -80 -16 -581 l0 -566 46 7 c26 3 60 6 75 6
l29 0 0 303 c0 167 3 365 7 441 l6 137 37 -58 c20 -32 96 -161 169 -288 74
-126 149 -254 167 -282 33 -52 34 -53 83 -53 38 0 55 5 69 20 16 18 117 184
344 565 l53 90 3 -437 2 -438 80 0 80 0 0 559 0 560 -22 15 c-14 10 -44 16
-81 16 -52 0 -62 -3 -85 -29 -27 -29 -151 -234 -330 -545 -53 -94 -101 -170
-106 -170 -5 -1 -49 69 -98 154 -208 365 -311 539 -334 564 -22 23 -32 26 -94
26 -49 0 -73 -4 -84 -16z"/>
<path d="M11417 3803 c-4 -3 -7 -37 -7 -74 l0 -69 198 -2 197 -3 3 -497 2
-498 80 0 80 0 0 495 0 495 195 0 195 0 0 80 0 80 -468 0 c-258 0 -472 -3
-475 -7z"/>
<path d="M14483 3799 l-23 -8 0 -566 0 -565 80 0 80 0 0 433 1 432 30 -35 c17
-19 150 -192 296 -385 147 -192 286 -374 311 -402 43 -53 44 -53 102 -53 96 0
90 -42 90 597 l0 553 -86 0 -85 0 7 -157 c4 -87 3 -283 -1 -435 l-7 -277 -97
127 c-53 70 -170 224 -260 342 -219 288 -309 398 -329 404 -28 7 -86 5 -109
-5z"/>
<path d="M16134 3800 c-14 -5 -35 -42 -64 -107 -123 -282 -249 -576 -310 -723
-38 -91 -82 -198 -99 -237 l-30 -73 83 0 82 0 52 123 c163 386 211 498 274
652 38 94 73 173 77 178 4 4 59 -115 122 -265 77 -182 112 -276 105 -281 -6
-4 -82 -7 -170 -5 l-158 3 -24 -65 c-13 -36 -24 -71 -24 -77 0 -10 30 -13 118
-13 64 0 167 -3 229 -7 l111 -6 42 -101 c65 -154 57 -146 150 -146 44 0 80 4
80 9 0 8 -373 885 -445 1046 -40 91 -58 105 -124 104 -31 0 -65 -4 -77 -9z"/>
<path d="M16960 3736 l0 -75 298 -3 c294 -3 298 -3 347 -28 167 -83 175 -340
15 -430 -44 -24 -51 -25 -272 -28 l-228 -3 0 169 0 169 -47 25 c-27 14 -63 29
-81 33 l-32 7 2 -459 3 -458 77 -3 78 -3 2 183 3 183 156 3 156 2 43 -57 c84
-113 184 -239 219 -275 l35 -38 88 0 c48 0 88 3 88 7 0 5 -51 75 -272 370 -6
8 9 20 52 39 226 101 279 428 100 618 -55 58 -127 98 -208 115 -32 7 -166 11
-337 11 l-285 0 0 -74z"/>
<path d="M18010 3800 c0 -9 71 -121 384 -605 l71 -109 5 -216 5 -215 78 -3 77
-3 0 204 0 204 56 89 c31 49 111 179 179 289 67 110 145 236 173 280 28 44 48
83 44 87 -4 4 -45 4 -91 1 l-84 -6 -62 -96 c-73 -114 -237 -386 -265 -442 -11
-21 -22 -39 -25 -39 -2 0 -19 26 -38 58 -52 89 -235 379 -289 460 l-49 72 -84
0 c-52 0 -85 -4 -85 -10z"/>
<path d="M12600 3230 l0 -570 80 0 80 0 0 570 0 570 -80 0 -80 0 0 -570z"/>
<path d="M7462 3073 c3 -233 4 -251 25 -289 12 -22 38 -55 57 -72 65 -57 104
-62 458 -62 l318 0 0 75 0 75 -300 0 c-319 0 -356 5 -379 48 -7 12 -11 81 -11
166 l0 146 315 0 315 0 0 80 0 80 -401 0 -400 0 3 -247z"/>
<path d="M9360 2079 l0 -90 -22 15 c-33 23 -109 21 -142 -5 -44 -35 -60 -76
-60 -159 -1 -59 4 -84 22 -118 35 -66 108 -90 172 -57 17 9 30 11 30 5 0 -5
16 -10 35 -10 l35 0 0 255 0 255 -35 0 -35 0 0 -91z m-30 -139 c26 -26 33 -59
28 -127 -4 -46 -10 -61 -32 -80 -34 -29 -58 -29 -93 1 -26 23 -28 29 -28 99 0
66 3 79 24 101 30 31 73 34 101 6z"/>
<path d="M11610 2120 c0 -39 1 -40 35 -40 34 0 35 1 35 40 0 39 -1 40 -35 40
-34 0 -35 -1 -35 -40z"/>
<path d="M13660 2120 c0 -39 1 -40 35 -40 34 0 35 1 35 40 0 39 -1 40 -35 40
-34 0 -35 -1 -35 -40z"/>
<path d="M17590 2120 c0 -39 1 -40 35 -40 34 0 35 1 35 40 0 39 -1 40 -35 40
-34 0 -35 -1 -35 -40z"/>
<path d="M7640 1902 l0 -242 63 0 c133 0 227 42 266 118 41 81 35 199 -14 273
-36 55 -94 79 -214 86 l-101 6 0 -241z m209 150 c59 -29 76 -63 76 -147 0 -59
-4 -79 -21 -101 -35 -48 -68 -65 -132 -71 l-62 -6 0 172 0 171 53 0 c30 0 67
-7 86 -18z"/>
<path d="M10070 1900 l0 -240 120 0 120 0 0 35 0 35 -85 0 -85 0 0 70 0 69 78
3 77 3 3 33 3 32 -80 0 -81 0 0 65 0 64 83 3 82 3 0 30 0 30 -117 3 -118 3 0
-241z"/>
<path d="M13210 1900 l0 -243 92 6 c127 8 190 40 230 116 47 90 36 224 -25
289 -42 45 -92 63 -197 69 l-100 6 0 -243z m193 156 c61 -26 81 -59 85 -139 2
-54 -1 -81 -15 -107 -22 -44 -91 -80 -150 -80 l-43 0 0 170 0 170 45 0 c25 0
60 -6 78 -14z"/>
<path d="M15900 1900 l0 -240 30 0 30 0 0 182 c0 100 3 179 6 176 3 -3 38 -84
77 -179 70 -168 73 -174 101 -174 28 0 31 5 100 180 l71 180 3 -182 2 -183 30
0 30 0 0 240 0 240 -44 0 -43 0 -74 -189 c-41 -104 -77 -187 -80 -183 -3 4
-39 89 -79 190 l-74 182 -43 0 -43 0 0 -240z"/>
<path d="M11428 2098 c-24 -8 -28 -15 -28 -49 0 -35 -3 -39 -25 -39 -21 0 -25
-5 -25 -30 0 -25 4 -30 25 -30 l25 0 0 -115 c0 -134 12 -169 60 -180 43 -9 90
3 90 23 0 27 -15 43 -33 36 -37 -14 -47 13 -47 127 l0 109 35 0 c32 0 35 2 35
30 0 28 -3 30 -35 30 l-35 0 0 50 c0 53 0 54 -42 38z"/>
<path d="M8175 2006 c-67 -31 -101 -102 -92 -196 7 -78 29 -117 80 -141 48
-21 85 -24 140 -8 32 9 37 14 37 41 0 25 -3 29 -17 23 -10 -3 -39 -9 -65 -12
-43 -5 -50 -3 -77 25 -17 17 -31 40 -31 51 0 20 5 21 105 21 l105 0 0 50 c0
56 -15 93 -52 127 -30 28 -94 37 -133 19z m89 -67 c15 -12 26 -30 26 -45 0
-23 -3 -24 -70 -24 -81 0 -89 12 -41 61 35 34 49 36 85 8z"/>
<path d="M8555 2009 c-104 -25 -156 -154 -106 -266 31 -66 94 -96 185 -86 44
5 46 7 46 38 l0 33 -40 -9 c-50 -11 -82 -4 -110 26 -43 45 -43 134 0 180 26
28 64 36 113 25 l37 -8 0 34 c0 31 -3 34 -29 34 -16 0 -35 2 -43 4 -7 2 -31 0
-53 -5z"/>
<path d="M8834 2001 c-63 -29 -88 -72 -92 -156 -2 -58 1 -77 20 -109 36 -61
69 -81 138 -81 64 0 95 16 134 68 31 42 35 151 7 205 -40 79 -128 111 -207 73z
m101 -53 c75 -34 73 -200 -2 -229 -68 -26 -123 26 -123 116 1 57 17 92 51 111
30 17 42 17 74 2z"/>
<path d="M9604 2006 c-56 -25 -79 -70 -82 -161 -5 -131 40 -189 146 -190 89 0
112 9 112 46 0 29 -2 31 -27 23 -46 -14 -121 -10 -138 7 -8 8 -19 29 -24 47
l-10 32 110 0 109 0 0 43 c0 52 -30 120 -62 141 -35 23 -98 28 -134 12z m101
-71 c14 -13 25 -33 25 -45 0 -18 -6 -20 -75 -20 l-75 0 13 33 c13 30 47 57 75
57 7 0 24 -11 37 -25z"/>
<path d="M10537 2010 c-16 -5 -35 -14 -43 -21 -11 -9 -14 -8 -14 5 0 11 -9 16
-30 16 l-30 0 0 -175 0 -175 30 0 30 0 1 103 c0 56 5 118 12 137 23 66 95 74
117 14 6 -14 10 -77 10 -140 l0 -114 30 0 30 0 0 105 c0 119 14 168 54 186 20
10 30 9 49 -4 30 -20 37 -53 37 -183 l0 -104 31 0 30 0 -3 149 c-3 130 -5 152
-22 170 -40 44 -132 45 -176 1 -17 -17 -20 -17 -32 -3 -11 14 -71 45 -80 42
-2 0 -16 -5 -31 -9z"/>
<path d="M11084 2009 c-136 -39 -152 -271 -24 -336 52 -27 85 -29 140 -7 50
20 78 58 92 126 20 97 -31 196 -110 218 -43 12 -56 11 -98 -1z m109 -76 c25
-23 41 -85 33 -129 -8 -42 -55 -94 -85 -94 -58 0 -90 38 -97 114 -4 40 -1 58
15 84 34 53 91 63 134 25z"/>
<path d="M11610 1840 l0 -180 35 0 35 0 0 180 0 180 -35 0 -35 0 0 -180z"/>
<path d="M11850 1998 c-111 -57 -121 -246 -17 -322 39 -29 135 -29 173 0 58
43 69 69 69 159 0 69 -4 88 -21 111 -53 71 -129 91 -204 52z m133 -67 c40 -39
41 -148 2 -191 -22 -24 -65 -33 -98 -21 -74 28 -76 193 -3 230 28 14 76 5 99
-18z"/>
<path d="M12268 2002 c-30 -16 -38 -17 -38 -6 0 9 -11 14 -30 14 l-30 0 0
-175 0 -175 35 0 35 0 0 121 c0 120 0 121 29 150 29 28 55 36 77 21 26 -17 34
-56 34 -171 l0 -121 35 0 35 0 0 113 c-1 132 -10 182 -42 213 -33 33 -94 40
-140 16z"/>
<path d="M12590 2002 c-41 -20 -65 -63 -56 -98 8 -31 35 -56 99 -95 36 -22 47
-34 47 -53 0 -44 -44 -54 -128 -30 -22 6 -23 4 -20 -27 3 -30 7 -34 43 -42 46
-9 113 -2 136 16 43 33 51 102 17 142 -13 14 -45 38 -73 53 -34 18 -51 34 -53
49 -5 33 35 49 87 35 32 -8 41 -7 41 3 0 7 3 20 6 28 4 11 -5 19 -33 26 -53
15 -72 14 -113 -7z"/>
<path d="M13660 1840 l0 -180 35 0 35 0 0 180 0 180 -35 0 -35 0 0 -180z"/>
<path d="M13883 2013 c-36 -7 -73 -52 -73 -88 0 -42 23 -70 91 -109 63 -38 74
-66 35 -91 -24 -16 -67 -16 -110 1 -9 3 -15 -5 -18 -25 -4 -29 -2 -32 36 -42
86 -23 164 9 180 73 13 52 -14 94 -86 132 -66 35 -76 51 -51 78 18 20 61 21
106 3 14 -6 17 -2 17 23 0 17 -3 33 -7 35 -13 8 -97 15 -120 10z"/>
<path d="M14213 2010 c-134 -29 -176 -209 -73 -312 39 -39 58 -44 145 -39 49
3 59 12 51 44 -5 23 -8 24 -46 16 -79 -18 -140 33 -140 118 0 82 68 135 145
114 33 -9 35 -8 41 16 4 13 3 28 -2 32 -13 13 -85 19 -121 11z"/>
<path d="M14504 2009 c-136 -39 -152 -271 -24 -336 52 -27 85 -29 140 -7 50
20 78 58 92 126 20 97 -31 196 -110 218 -43 12 -56 11 -98 -1z m109 -76 c25
-23 41 -85 33 -129 -8 -42 -55 -94 -85 -94 -58 0 -90 38 -97 114 -4 40 -1 58
15 84 34 53 91 63 134 25z"/>
<path d="M15215 2013 c-37 -10 -64 -35 -86 -79 -31 -66 -25 -176 14 -227 33
-43 89 -62 155 -52 65 10 72 14 72 47 0 22 -4 29 -14 25 -32 -13 -87 -19 -111
-13 -33 8 -65 44 -65 73 0 23 2 23 105 23 l105 0 0 48 c0 105 -84 180 -175
155z m80 -78 c14 -13 25 -33 25 -45 0 -18 -6 -20 -70 -20 -57 0 -70 3 -70 16
0 37 36 71 78 73 7 1 24 -10 37 -24z"/>
<path d="M15590 2013 c-8 -3 -23 -12 -32 -21 -16 -14 -18 -13 -18 1 0 13 -9
17 -35 17 l-35 0 0 -175 0 -175 35 0 35 0 0 104 c0 138 20 186 76 186 22 0 25
4 22 32 -3 33 -18 42 -48 31z"/>
<path d="M16595 2013 c-65 -18 -105 -86 -105 -182 0 -116 50 -175 149 -176 88
0 111 10 111 46 0 24 -3 30 -16 25 -70 -27 -143 -13 -163 30 -23 52 -19 54 94
54 l105 0 0 48 c0 105 -84 180 -175 155z m80 -78 c14 -13 25 -33 25 -45 0 -18
-6 -20 -70 -20 -60 0 -70 2 -70 18 1 21 18 45 45 60 30 17 43 15 70 -13z"/>
<path d="M16915 2007 c-35 -11 -40 -17 -43 -46 -3 -29 -1 -33 15 -26 80 33
128 29 143 -11 14 -35 5 -44 -41 -44 -107 0 -179 -82 -145 -165 26 -62 127
-84 177 -39 18 16 19 16 19 1 0 -12 9 -17 31 -17 l30 0 -3 150 c-3 144 -4 150
-28 175 -31 30 -98 40 -155 22z m120 -219 c-12 -63 -83 -99 -119 -62 -40 40 6
94 81 94 l45 0 -7 -32z"/>
<path d="M17308 2002 c-30 -16 -38 -17 -38 -6 0 9 -11 14 -30 14 l-30 0 0
-175 0 -175 35 0 35 0 0 123 c0 100 4 126 18 144 25 32 63 38 93 15 23 -19 24
-26 27 -151 l4 -131 29 0 29 0 0 134 c0 74 -4 146 -10 160 -21 56 -102 79
-162 48z"/>
<path d="M17590 1840 l0 -180 35 0 35 0 0 180 0 180 -35 0 -35 0 0 -180z"/>
<path d="M17874 2011 c-12 -5 -25 -14 -29 -20 -9 -16 -25 -13 -25 4 0 10 -10
15 -31 15 l-32 0 7 -61 c3 -34 6 -113 6 -175 l0 -114 29 0 29 0 4 126 c3 124
3 126 31 150 34 29 61 30 87 4 18 -18 20 -33 20 -150 l0 -130 35 0 35 0 0 125
c0 133 -13 190 -50 213 -27 16 -91 23 -116 13z"/>
<path d="M18225 2005 c-47 -17 -71 -43 -85 -93 -30 -108 14 -209 101 -232 34
-10 50 -9 81 3 44 18 49 7 12 -30 -23 -23 -31 -25 -82 -21 -31 3 -65 9 -74 13
-15 6 -18 2 -18 -24 0 -39 26 -51 108 -51 64 0 110 22 139 67 15 23 19 54 21
200 l4 173 -30 0 c-17 0 -34 -5 -37 -10 -4 -7 -11 -7 -18 -2 -23 18 -82 21
-122 7z m101 -63 c33 -22 46 -115 22 -167 -12 -26 -58 -45 -90 -37 -28 7 -49
38 -55 81 -7 50 2 86 27 111 20 20 74 27 96 12z"/>
<path d="M14819 1838 l58 -173 32 0 33 0 53 153 c30 83 57 161 60 172 5 17 2
20 -27 20 l-34 0 -39 -120 c-21 -66 -42 -120 -45 -120 -3 0 -22 54 -43 120
l-37 120 -34 0 -34 0 57 -172z"/>
<path d="M4000 1991 c0 -6 4 -13 10 -16 6 -3 7 1 4 9 -7 18 -14 21 -14 7z"/>
<path d="M3950 1785 c7 -8 17 -12 23 -8 6 4 8 0 5 -9 -4 -8 -1 -15 7 -15 10 0
11 6 2 24 -5 13 -19 23 -30 23 -16 0 -17 -3 -7 -15z"/>
<path d="M4033 1726 c-10 -11 -9 -15 3 -20 23 -9 24 -8 24 14 0 23 -10 25 -27
6z"/>
<path d="M3950 1701 c0 -6 4 -13 10 -16 6 -3 7 1 4 9 -7 18 -14 21 -14 7z"/>
<path d="M12837 1693 c-4 -3 -7 -21 -7 -40 0 -32 1 -33 40 -33 l40 0 0 40 c0
39 -1 40 -33 40 -19 0 -37 -3 -40 -7z"/>
<path d="M18540 1660 l0 -40 40 0 40 0 0 40 0 40 -40 0 -40 0 0 -40z"/>
<path d="M5300 1609 c0 -5 5 -7 10 -4 6 3 10 8 10 11 0 2 -4 4 -10 4 -5 0 -10
-5 -10 -11z"/>
<path d="M5340 1609 c0 -5 5 -7 10 -4 6 3 10 8 10 11 0 2 -4 4 -10 4 -5 0 -10
-5 -10 -11z"/>
<path d="M4260 1570 c0 -5 5 -10 12 -10 6 0 8 -3 5 -6 -4 -4 -12 -2 -20 4 -7
6 -19 7 -26 3 -23 -14 32 -22 62 -8 35 16 34 27 -3 27 -16 0 -30 -4 -30 -10z"/>
<path d="M4322 1531 c-10 -21 -9 -23 13 -18 14 2 25 0 25 -4 0 -5 -11 -9 -25
-9 -14 0 -25 -4 -25 -8 0 -5 6 -9 13 -9 6 0 22 -3 35 -7 13 -5 22 -3 22 3 0 6
3 10 8 10 4 -1 17 -1 30 0 27 1 30 21 2 21 -11 0 -20 5 -20 10 0 6 9 10 20 10
11 0 20 4 20 9 0 5 -24 11 -53 13 -48 3 -55 1 -65 -21z m68 -16 c0 -8 -4 -15
-10 -15 -5 0 -7 7 -4 15 4 8 8 15 10 15 2 0 4 -7 4 -15z"/>
<path d="M4588 1523 c7 -3 16 -2 19 1 4 3 -2 6 -13 5 -11 0 -14 -3 -6 -6z"/>
<path d="M4280 1509 c0 -5 -5 -7 -12 -3 -7 4 -8 3 -4 -4 4 -6 13 -9 21 -6 8 4
12 10 9 15 -7 12 -14 11 -14 -2z"/>
<path d="M5251 1491 c-8 -6 -9 -11 -3 -15 6 -3 14 -1 17 5 9 14 2 20 -14 10z"/>
<path d="M5222 1455 c-1 -14 5 -26 15 -29 19 -8 51 19 39 31 -5 5 -11 2 -13
-4 -3 -7 -12 -13 -21 -13 -13 0 -14 2 -4 9 11 6 10 10 0 19 -11 8 -14 6 -16
-13z"/>
</g>
</svg>
